<?xml version="1.0" standalone="no"?>
<!DOCTYPE svg PUBLIC "-//W3C//DTD SVG 20010904//EN"
 "http://www.w3.org/TR/2001/REC-SVG-20010904/DTD/svg10.dtd">
<svg version="1.0" xmlns="http://www.w3.org/2000/svg"
 width="900.000000pt" height="600.000000pt" viewBox="0 0 900.000000 600.000000"
 preserveAspectRatio="xMidYMid meet">

<g transform="translate(0.000000,600.000000) scale(0.100000,-0.100000)"
fill="#000000" stroke="none">
<path d="M4060 3729 c-73 -15 -146 -56 -199 -114 -66 -73 -94 -146 -94 -245 0
-108 29 -178 107 -256 78 -78 148 -107 256 -107 108 0 178 29 256 107 78 78
107 148 107 256 0 108 -29 178 -107 256 -89 88 -210 127 -326 103z"/>
<path d="M4807 2990 c-76 -13 -150 -55 -206 -115 -65 -72 -93 -145 -93 -245 0
-109 29 -178 106 -256 77 -77 146 -106 256 -106 109 0 178 29 256 106 77 78
106 147 106 256 0 109 -29 178 -106 256 -88 88 -199 124 -319 104z"/>
</g>
</svg>
