<?xml version="1.0" standalone="no"?>
<!DOCTYPE svg PUBLIC "-//W3C//DTD SVG 20010904//EN"
 "http://www.w3.org/TR/2001/REC-SVG-20010904/DTD/svg10.dtd">
<svg version="1.0" xmlns="http://www.w3.org/2000/svg"
 width="640.000000pt" height="640.000000pt" viewBox="0 0 640.000000 640.000000"
 preserveAspectRatio="xMidYMid meet">

<g transform="translate(0.000000,640.000000) scale(0.100000,-0.100000)"
fill="#000000" stroke="none">
<path d="M0 3200 l0 -3200 3200 0 3200 0 0 3200 0 3200 -3200 0 -3200 0 0
-3200z m3119 2297 c46 -138 46 -137 27 -137 -8 0 -20 16 -27 35 -12 32 -16 35
-54 35 -46 0 -65 -13 -65 -46 0 -25 -17 -41 -30 -28 -5 5 3 66 18 137 l27 127
32 0 c31 0 31 0 72 -123z m242 105 c31 -26 31 -78 -1 -104 -26 -21 -25 -28 15
-120 5 -13 3 -18 -8 -18 -19 0 -30 15 -51 73 -16 43 -21 48 -45 45 -24 -3 -26
-7 -29 -60 -2 -41 -7 -58 -17 -58 -20 0 -24 23 -24 128 0 51 -3 102 -6 113 -6
18 -1 19 68 19 58 0 80 -4 98 -18z m222 3 c30 -4 47 -11 47 -20 0 -11 -14 -13
-70 -8 l-70 6 0 -42 c0 -40 1 -41 33 -41 18 0 42 -7 53 -15 21 -16 19 -17 -46
-19 l-45 -1 -3 -42 c-3 -42 -2 -43 26 -43 49 0 93 -12 89 -24 -4 -11 -73 -11
-130 0 l-28 6 6 116 c4 65 8 123 11 130 2 8 16 11 41 7 21 -2 59 -7 86 -10z
m-662 -10 c2 -33 -26 -236 -33 -247 -12 -19 -42 23 -74 105 -15 37 -30 67 -34
67 -7 0 -20 -99 -20 -156 0 -78 -39 -46 -91 76 -18 41 -38 82 -46 91 -19 23
-16 41 8 37 15 -2 29 -23 54 -83 18 -44 37 -80 41 -80 8 0 25 111 24 163 0 18
5 23 22 20 16 -2 27 -16 40 -50 38 -103 49 -123 57 -109 5 8 12 52 16 98 5 66
10 83 21 81 8 -2 15 -7 15 -13z m966 -44 c30 -19 51 -56 39 -69 -4 -3 -20 9
-36 27 -34 36 -75 40 -94 8 -12 -19 -7 -24 78 -90 29 -22 36 -35 36 -61 0 -38
-14 -53 -58 -62 -42 -9 -98 12 -122 46 -25 35 -25 40 -2 40 11 0 24 -11 30
-25 14 -29 54 -42 88 -26 37 16 30 47 -18 80 -66 46 -78 59 -78 88 0 60 72 83
137 44z m-1398 -58 c39 -148 41 -196 7 -218 -13 -9 -40 -18 -59 -22 -50 -8
-80 25 -108 118 -12 41 -26 78 -30 84 -17 17 -10 36 12 33 18 -2 26 -18 46
-88 29 -100 46 -124 83 -115 43 11 53 25 46 70 -5 39 -27 122 -41 158 -5 13
-2 17 14 17 15 0 23 -9 30 -37z m1658 -15 c24 -24 36 -74 19 -80 -8 -3 -16 9
-36 52 -4 8 -19 19 -35 25 -23 8 -30 6 -51 -18 -25 -29 -44 -85 -44 -129 0
-19 8 -33 26 -44 24 -16 26 -16 55 5 51 38 82 10 33 -28 -30 -24 -48 -26 -94
-10 -72 26 -80 170 -13 236 21 22 31 25 70 20 30 -3 54 -13 70 -29z m-1912
-25 c-4 -10 -14 -37 -23 -60 l-16 -43 69 -64 c63 -59 67 -65 45 -66 -18 0 -40
14 -70 45 -24 25 -50 45 -57 45 -18 0 -28 -67 -14 -96 15 -33 14 -54 -3 -54
-7 0 -21 21 -30 48 -24 66 -67 165 -77 178 -11 13 -1 24 21 24 10 0 22 -18 34
-50 10 -27 22 -50 26 -50 5 0 18 30 30 68 21 62 41 92 63 92 5 0 6 -8 2 -17z
m2050 -14 c4 -6 -1 -31 -10 -55 -9 -25 -15 -48 -12 -51 3 -2 23 -11 44 -18 46
-16 60 -7 69 41 7 39 15 47 38 38 24 -9 20 -31 -22 -130 -21 -49 -42 -97 -45
-108 -6 -15 -10 -16 -22 -6 -20 16 -19 33 4 80 l19 39 -39 15 c-22 9 -45 16
-52 16 -7 0 -21 -24 -32 -52 -22 -66 -22 -65 -39 -43 -11 15 -8 34 23 131 27
85 40 114 53 114 9 0 20 -5 23 -11z m-2275 -126 c47 -48 69 -126 48 -170 -16
-35 -79 -67 -114 -59 -39 10 -83 65 -101 126 -19 66 -8 95 47 122 53 27 78 23
120 -19z m2590 2 c64 -33 76 -93 35 -175 -30 -58 -48 -70 -110 -70 -66 0 -95
31 -95 102 0 59 28 130 57 147 26 15 79 13 113 -4z m-2849 -85 c22 0 49 -42
49 -75 0 -31 -6 -40 -45 -67 -25 -18 -45 -35 -45 -39 0 -4 9 -24 21 -43 19
-33 19 -56 0 -56 -5 0 -35 44 -67 98 -32 53 -63 100 -68 104 -6 4 -5 12 3 22
19 22 113 67 129 61 8 -3 18 -5 23 -5z m3094 -50 c62 -38 70 -113 20 -181 -44
-59 -97 -74 -155 -44 -37 19 -50 43 -50 95 0 44 20 91 53 128 26 29 87 30 132
2z m-3297 -96 c13 -9 37 -34 53 -57 38 -53 41 -122 6 -155 -66 -62 -148 -36
-198 60 -28 54 -25 99 9 130 44 41 91 49 130 22z m-457 -49 c37 -66 39 -147 7
-195 -35 -51 -82 -72 -151 -67 -52 3 -61 7 -102 47 -42 41 -45 48 -45 98 0 60
15 95 57 133 38 36 47 38 132 36 l74 -2 28 -50z m3929 24 c0 -6 -27 -50 -60
-98 l-61 -86 41 -35 c40 -35 49 -50 29 -50 -12 0 -74 44 -102 73 -21 20 -28 5
66 149 43 66 53 76 69 67 10 -5 18 -14 18 -20z m-1625 -9 c68 -17 141 -52 310
-146 22 -12 99 -54 170 -94 149 -83 256 -142 475 -263 355 -195 404 -229 494
-342 26 -32 65 -95 86 -140 76 -154 73 -125 78 -845 2 -440 0 -672 -8 -729
-32 -242 -179 -445 -416 -576 -267 -147 -342 -189 -394 -218 -44 -25 -108 -60
-162 -90 -24 -13 -153 -85 -288 -159 -143 -80 -274 -145 -314 -157 -176 -54
-386 -45 -539 23 -121 53 -1185 651 -1245 699 -104 84 -193 215 -240 352 l-27
80 0 715 0 715 23 75 c44 142 133 278 239 364 34 28 130 89 215 135 84 47 207
115 273 152 431 242 743 411 792 429 145 52 322 60 478 20z m2092 -16 c136
-65 107 -285 -40 -301 -96 -11 -162 25 -187 102 -45 136 97 260 227 199z
m-4817 -1521 c21 -15 65 -17 352 -21 236 -3 328 -8 325 -16 -3 -8 -102 -12
-334 -14 -278 -2 -333 -5 -343 -17 -18 -22 -67 -19 -80 4 -14 27 -13 47 6 65
20 21 44 20 74 -1z m5116 -8 c15 -23 15 -27 0 -50 -19 -28 -52 -33 -82 -10
-16 12 -74 14 -347 15 -307 0 -328 1 -325 18 3 16 28 17 335 20 278 2 333 5
343 17 19 23 57 18 76 -10z m-357 -106 l34 -21 40 22 c54 31 112 23 150 -20
35 -39 35 -74 -2 -111 -38 -37 -82 -39 -116 -4 -30 29 -32 58 -5 85 15 15 16
20 6 20 -20 0 -46 -39 -46 -70 0 -30 22 -65 51 -80 10 -6 42 -13 71 -16 28 -3
58 -9 67 -14 13 -7 11 -10 -12 -19 -16 -6 -44 -11 -62 -11 -49 0 -81 -18 -101
-56 -22 -40 -12 -78 26 -103 l24 -16 -24 33 c-23 31 -24 35 -9 60 8 15 27 33
42 40 24 12 33 11 65 -5 64 -31 69 -102 10 -146 -36 -27 -101 -26 -138 1 l-29
22 -50 -27 c-50 -25 -52 -26 -95 -9 -30 12 -49 27 -62 51 -18 34 -18 36 0 70
25 46 72 63 115 40 38 -19 49 -56 27 -90 -19 -29 -11 -33 16 -8 20 18 24 64 8
93 -15 28 -48 43 -113 51 -32 4 -61 10 -64 13 -13 13 15 27 64 30 27 2 59 9
71 15 53 28 71 107 30 135 -32 22 -42 20 -18 -4 27 -27 25 -56 -5 -85 -51 -52
-139 -14 -139 60 0 80 96 121 173 74z m-4558 -40 c39 -38 59 -48 59 -29 0 5
14 25 31 45 35 39 70 45 118 20 41 -21 96 -88 109 -134 19 -61 14 -67 -21 -26
-26 29 -42 39 -77 44 -48 7 -125 0 -137 -13 -12 -11 20 -60 42 -65 32 -6 46
-32 39 -74 -6 -41 7 -67 36 -67 23 0 40 -39 29 -68 -5 -14 -5 -31 1 -42 13
-25 13 -30 -4 -30 -8 0 -17 9 -21 20 -3 11 -18 25 -33 32 -20 10 -27 21 -28
43 -1 50 -13 71 -47 86 -29 13 -32 18 -32 59 0 49 -11 74 -26 64 -6 -3 -8 -22
-4 -46 5 -30 3 -44 -11 -59 -9 -10 -23 -19 -29 -19 -19 0 -26 -27 -19 -71 7
-44 -7 -69 -38 -69 -11 0 -22 -9 -25 -20 -10 -39 -21 -19 -22 40 0 49 3 61 19
70 32 17 43 48 30 80 -14 34 -1 65 32 76 48 14 51 57 7 73 -71 24 -128 9 -172
-46 -27 -33 -35 -28 -27 16 17 92 98 168 164 153 10 -3 36 -22 57 -43z m-201
-469 c22 -19 37 -20 352 -20 308 0 329 -1 326 -17 -3 -17 -28 -18 -332 -21
-271 -2 -332 -5 -349 -17 -28 -19 -52 -19 -71 1 -23 22 -20 60 6 78 29 21 40
20 68 -4z m5110 0 c11 -11 20 -27 20 -35 0 -21 -36 -55 -59 -55 -10 0 -24 7
-31 15 -10 12 -65 15 -343 17 -307 3 -332 4 -335 21 -3 16 17 17 323 17 312 0
328 1 352 20 14 11 32 20 39 20 8 0 23 -9 34 -20z m-4722 -1317 c70 -52 90
-129 52 -202 -55 -109 -214 -109 -271 -1 -57 107 26 236 144 227 27 -2 60 -13
75 -24z m4438 -34 c74 -35 105 -133 66 -209 -25 -51 -74 -80 -135 -80 -145 0
-212 168 -105 267 49 46 109 54 174 22z m-3687 -237 c33 -22 58 -48 64 -64 12
-37 -10 -79 -50 -98 -25 -12 -33 -22 -34 -45 -2 -47 -9 -98 -13 -102 -2 -3
-14 0 -25 7 -18 9 -21 20 -21 80 0 59 -3 71 -20 80 -18 10 -24 5 -52 -40 -17
-27 -34 -50 -38 -50 -3 0 -15 6 -25 14 -18 13 -15 20 53 135 48 80 79 121 90
121 9 0 41 -17 71 -38z m2905 -13 c20 -16 26 -29 26 -60 0 -32 3 -39 20 -39
29 0 60 -39 60 -76 0 -24 -8 -39 -32 -59 -35 -29 -135 -82 -142 -74 -18 19
-126 253 -119 260 15 14 128 68 144 69 9 0 28 -9 43 -21z m-238 -166 c73 -159
75 -184 12 -223 -68 -42 -117 -38 -148 12 -10 17 -33 71 -51 120 -27 75 -30
91 -18 99 28 17 37 8 70 -78 51 -135 67 -151 120 -123 28 15 24 44 -22 153
-35 81 -39 101 -28 108 24 15 29 11 65 -68z m-2374 30 c72 -69 1 -263 -96
-263 -44 0 -89 21 -110 52 -39 55 0 184 68 228 41 27 100 19 138 -17z m199
-67 c26 -8 61 -22 78 -30 28 -15 31 -21 31 -61 0 -36 -5 -48 -25 -61 -23 -15
-23 -17 -9 -40 13 -19 14 -29 4 -59 -12 -38 -35 -55 -72 -55 -38 0 -158 42
-158 55 0 11 53 167 81 238 13 31 10 31 70 13z m1799 -20 c0 -8 71 -230 75
-234 2 -2 27 4 55 13 38 13 55 14 63 6 17 -17 0 -28 -80 -55 -54 -18 -74 -21
-81 -13 -9 12 -82 247 -82 266 0 5 8 12 18 14 26 7 32 7 32 3z m-148 -57 c29
-13 61 -56 53 -69 -11 -17 -44 -11 -55 10 -11 21 -54 27 -80 10 -20 -12 -18
-102 3 -152 27 -64 93 -64 109 0 7 25 14 32 33 32 30 0 33 -25 10 -71 -19 -35
-50 -49 -109 -49 -74 0 -119 66 -117 174 0 50 5 64 27 87 35 37 84 48 126 28z
m-1317 -13 c19 -8 41 -28 49 -45 42 -80 -6 -227 -79 -245 -38 -10 -101 11
-124 41 -37 45 -22 172 26 225 34 39 74 46 128 24z m233 -38 c69 -9 82 -14 82
-30 0 -14 -8 -18 -35 -18 -38 0 -36 8 -56 -150 -6 -47 -14 -89 -19 -93 -4 -5
-18 -6 -30 -2 -17 5 -20 12 -16 33 13 66 27 204 22 217 -3 8 -17 15 -31 15
-18 0 -25 5 -25 20 0 23 0 23 108 8z m709 -33 c27 -24 28 -25 9 -40 -18 -13
-22 -13 -41 5 -26 24 -58 26 -76 4 -21 -25 1 -46 67 -66 83 -25 114 -72 84
-129 -36 -66 -175 -65 -210 1 -8 15 -6 21 11 30 18 10 25 8 48 -14 41 -40 101
-29 101 18 0 21 -9 27 -62 45 -75 25 -98 45 -98 83 0 60 31 86 102 87 26 1 45
-6 65 -24z m-532 -67 c-15 -213 -14 -208 -42 -208 l-25 0 6 128 c9 155 11 162
42 162 l25 0 -6 -82z m266 53 c32 -32 38 -65 13 -75 -18 -7 -34 0 -34 16 0 19
-32 48 -52 48 -60 0 -80 -175 -24 -212 25 -17 57 -8 74 22 22 39 58 38 54 0
-4 -41 -46 -70 -100 -70 -80 0 -122 48 -122 140 0 97 48 160 122 160 30 0 46
-7 69 -29z"/>
<path d="M3036 5563 c-2 -10 -8 -37 -11 -60 l-7 -43 36 0 c41 0 41 1 20 63
-18 53 -30 66 -38 40z"/>
<path d="M3248 5594 c-5 -4 -8 -25 -8 -46 0 -38 0 -38 39 -38 58 0 91 41 57
69 -18 15 -79 25 -88 15z"/>
<path d="M1896 5299 c-33 -26 -33 -51 0 -117 37 -74 68 -86 117 -44 32 28 15
104 -36 160 -25 27 -47 28 -81 1z"/>
<path d="M4512 5264 c-36 -44 -60 -119 -45 -143 17 -27 66 -25 95 4 45 45 69
113 50 141 -8 13 -46 34 -61 34 -5 0 -23 -16 -39 -36z"/>
<path d="M1672 5184 c-26 -18 -28 -36 -6 -69 20 -30 33 -31 68 -4 62 49 4 119
-62 73z"/>
<path d="M4746 5137 c-25 -33 -56 -97 -56 -117 0 -15 38 -50 55 -50 20 0 83
57 101 91 19 38 18 65 -6 89 -30 30 -65 25 -94 -13z"/>
<path d="M1465 5058 c-27 -16 -35 -28 -35 -61 0 -37 56 -116 89 -124 35 -9 75
17 79 49 4 34 -29 100 -64 127 -30 24 -41 25 -69 9z"/>
<path d="M3055 4924 c-80 -21 -145 -50 -325 -150 -113 -62 -232 -127 -266
-146 -587 -322 -710 -395 -770 -454 -71 -70 -122 -153 -155 -250 l-24 -69 0
-685 c0 -680 0 -686 22 -755 30 -94 83 -180 157 -255 51 -51 99 -83 281 -184
121 -67 245 -136 275 -153 457 -255 686 -378 735 -395 76 -26 241 -35 335 -19
84 15 157 51 560 278 19 11 103 57 185 102 199 110 233 129 280 156 22 12 92
51 155 85 188 104 301 237 345 406 22 86 23 1371 0 1457 -30 117 -110 243
-203 318 -24 20 -172 107 -330 195 -158 87 -415 229 -571 316 -157 87 -310
168 -340 179 -45 18 -82 22 -191 25 -74 2 -144 1 -155 -2z m249 -58 c88 -17
104 -25 376 -176 299 -165 346 -192 435 -240 44 -24 97 -54 117 -67 21 -13 39
-23 41 -23 18 0 321 -180 350 -208 58 -55 120 -148 153 -227 l29 -70 3 -644
c2 -408 -1 -668 -7 -710 -14 -87 -77 -214 -142 -286 -53 -57 -91 -82 -321
-208 -73 -41 -173 -96 -223 -124 -49 -28 -112 -63 -140 -78 -79 -44 -247 -137
-285 -158 -298 -168 -357 -190 -500 -190 -170 0 -111 -28 -1135 540 -202 112
-272 156 -316 199 -66 65 -116 145 -146 233 -22 66 -22 69 -23 732 0 583 2
672 16 720 34 115 115 239 191 292 45 32 139 86 683 387 162 89 322 178 355
197 207 117 317 141 489 109z"/>
<path d="M3070 4806 c-30 -7 -73 -21 -96 -32 -86 -40 -344 -187 -344 -195 0
-5 12 -9 26 -9 59 0 124 -71 124 -135 0 -15 35 -76 90 -157 113 -166 115 -166
280 -153 49 4 103 3 128 -3 35 -8 53 -7 89 6 41 16 54 29 139 154 60 87 94
146 94 163 0 61 50 116 113 125 l42 6 -40 25 c-39 25 -81 48 -256 143 -131 71
-260 91 -389 62z"/>
<path d="M2575 4505 c-17 -17 -25 -35 -25 -60 0 -48 14 -71 55 -93 25 -12 62
-57 135 -165 55 -81 100 -151 100 -157 0 -8 -25 -17 -103 -34 -41 -10 -113
-84 -126 -131 -6 -22 -11 -71 -11 -110 0 -84 22 -137 73 -182 39 -34 48 -37
222 -77 166 -39 170 -40 173 -63 3 -20 -2 -21 -105 -25 -81 -3 -119 -9 -153
-25 -46 -21 -126 -94 -135 -124 -3 -10 -21 -20 -41 -24 -19 -3 -53 -22 -74
-41 -36 -33 -42 -35 -97 -32 l-58 3 -3 98 -3 97 -69 0 c-44 0 -70 -4 -70 -11
0 -6 -7 -35 -16 -65 -13 -46 -19 -54 -39 -54 -25 0 -27 5 -51 103 -6 26 -8 27
-75 27 l-69 0 0 -315 c0 -278 2 -315 16 -315 15 0 40 -49 51 -100 4 -24 -1
-36 -29 -64 -59 -59 -74 -155 -38 -234 l20 -44 57 33 c97 54 94 51 87 86 -5
25 -2 33 16 43 31 17 53 -4 46 -44 -5 -30 -2 -33 67 -73 71 -42 72 -42 88 -22
21 28 74 23 73 -6 -1 -11 -2 -39 -2 -62 -2 -41 -4 -43 -32 -43 -16 0 -30 -4
-30 -9 0 -5 -10 -11 -22 -13 -22 -3 -23 -8 -26 -90 -3 -84 -2 -88 18 -88 12 0
28 -7 36 -15 8 -8 21 -12 29 -9 19 8 37 -30 33 -69 l-3 -32 268 -3 267 -2 0
110 c0 107 8 132 29 91 18 -33 63 -43 176 -39 l107 3 29 35 29 34 0 -117 0
-117 269 0 270 0 3 52 c3 48 5 53 28 56 14 2 29 8 35 13 5 5 19 9 32 9 22 0
23 3 23 85 0 73 -3 86 -17 91 -10 3 -27 10 -38 14 -11 5 -29 10 -40 12 -17 3
-20 12 -23 66 l-3 62 36 0 c24 0 35 -5 35 -14 0 -30 21 -26 90 14 67 39 70 42
70 79 0 69 56 63 62 -6 3 -33 9 -38 75 -75 l72 -39 17 38 c36 84 18 180 -47
248 l-29 31 21 62 c12 37 27 62 35 62 12 0 14 51 14 315 l0 316 -67 -3 -66 -3
-16 -60 c-14 -53 -19 -60 -41 -60 -21 0 -27 8 -43 63 l-19 62 -69 0 -69 0 0
-100 0 -100 -63 0 c-51 0 -64 3 -75 20 -13 21 -82 60 -106 60 -9 0 -27 17 -40
38 -31 48 -61 75 -115 103 -37 19 -65 24 -158 27 -101 4 -113 6 -113 23 0 20
-8 17 219 73 217 53 251 88 251 261 0 95 -2 104 -29 148 -33 51 -84 82 -151
93 -23 4 -44 13 -47 21 -3 8 39 81 97 168 84 124 109 154 131 159 31 6 59 49
59 90 0 13 -12 38 -26 55 -54 65 -164 26 -164 -58 0 -26 -12 -53 -41 -95 -23
-33 -68 -99 -101 -148 -32 -48 -64 -88 -69 -88 -6 0 -30 -9 -53 -20 -35 -15
-50 -17 -77 -10 -39 12 -154 12 -219 1 -29 -5 -54 -3 -70 5 -14 6 -37 16 -52
22 -38 16 -218 286 -218 329 0 19 -10 43 -26 62 -22 26 -33 31 -70 31 -34 0
-51 -6 -69 -25z m95 -35 c14 -14 18 -28 14 -44 -5 -20 16 -56 102 -183 132
-194 129 -191 167 -195 42 -4 45 -25 5 -33 -18 -3 -41 -9 -50 -11 -14 -4 -18
1 -18 23 0 19 -36 80 -112 194 -91 133 -119 168 -143 175 -23 7 -31 16 -33 39
-3 19 2 33 14 42 24 17 30 17 54 -7z m1104 -12 c14 -23 -3 -52 -33 -56 -24 -4
-34 -16 -165 -211 -62 -92 -96 -151 -94 -165 3 -18 -1 -20 -26 -18 -17 2 -41
8 -55 14 -21 7 -23 11 -11 18 8 6 27 10 41 10 27 0 25 -2 194 245 51 74 68
108 67 129 -2 15 3 35 9 43 16 18 59 13 73 -9z m-338 -463 c102 -25 199 -52
215 -61 54 -27 69 -67 69 -178 l0 -99 -38 -36 c-35 -34 -52 -40 -235 -85 -108
-26 -200 -52 -203 -57 -7 -12 -124 -12 -124 1 0 5 -17 14 -37 19 -66 18 -166
42 -233 57 -109 23 -143 40 -173 86 -51 79 -31 246 35 287 13 8 106 36 208 62
244 62 274 63 516 4z m-191 -555 c-3 -5 -26 -10 -51 -10 -24 0 -44 5 -44 10 0
6 23 10 51 10 31 0 48 -4 44 -10z m3 -47 c-3 -16 11 -19 126 -25 78 -4 145
-13 171 -22 54 -21 101 -71 124 -131 10 -27 21 -43 25 -36 15 23 56 11 96 -29
40 -40 41 -40 115 -40 96 0 115 17 115 99 0 75 8 101 31 101 21 0 32 -20 49
-88 l11 -43 61 3 62 3 12 53 c13 61 24 75 50 70 18 -3 19 -18 19 -263 l0 -260
-142 -3 -143 -3 0 99 c0 85 -3 103 -21 126 -19 24 -26 26 -98 26 -77 0 -77 0
-116 -40 -27 -28 -51 -42 -77 -47 l-38 -6 0 -58 c0 -72 -20 -126 -63 -165 -63
-59 -58 -59 -377 -62 -366 -5 -409 -1 -456 40 -19 17 -46 51 -61 75 -24 42
-28 60 -34 178 -1 17 -3 23 -6 13 -10 -39 -80 -13 -118 43 l-25 39 -74 0
c-102 0 -111 -11 -112 -139 -1 -106 -5 -121 -35 -121 -21 0 -26 -16 -7 -22 9
-3 5 -25 -13 -79 l-24 -74 -69 0 -68 0 -24 65 c-28 77 -29 90 -8 90 8 0 12 5
9 10 -3 6 -17 10 -31 10 l-24 0 0 265 0 265 23 0 c20 0 26 -10 43 -62 l20 -63
62 -3 c42 -2 62 1 62 8 0 7 7 36 16 66 13 46 19 54 40 54 23 0 24 -3 24 -69 0
-60 3 -74 26 -100 24 -29 30 -31 99 -31 72 0 74 1 102 35 20 25 39 37 66 42
32 5 37 3 37 -13 1 -16 3 -15 15 6 8 14 14 33 15 43 0 22 75 104 114 125 22
11 64 16 145 18 146 4 192 11 184 30 -4 11 6 14 46 14 44 0 51 -3 49 -17z
m950 -631 c95 -2 94 0 60 -98 l-23 -65 -65 3 -64 3 -28 74 c-15 41 -25 77 -23
81 2 4 17 6 32 5 15 -1 65 -3 111 -3z m-1118 -378 c0 -150 4 -253 10 -265 9
-16 22 -19 86 -19 56 0 75 3 71 13 -2 8 -19 11 -49 9 -26 -2 -56 1 -67 8 -20
10 -21 17 -21 255 l0 245 105 0 105 0 0 -253 c0 -314 7 -297 -127 -297 -142 0
-133 -20 -133 292 0 165 4 258 10 258 6 0 10 -89 10 -246z m608 237 l172 -1 0
-40 0 -40 -219 0 c-211 0 -220 1 -226 20 -15 46 20 72 85 64 8 -2 93 -3 188
-3z m-733 -41 l0 -35 -220 0 -220 0 -3 38 -3 37 223 -2 223 -3 0 -35z m-657
-17 c49 -36 72 -81 72 -139 0 -29 -4 -56 -10 -59 -5 -3 -23 2 -39 11 -23 14
-31 26 -33 53 -2 27 -11 41 -37 58 -56 38 -113 10 -127 -62 -4 -21 -14 -36
-30 -44 -46 -21 -54 -15 -54 39 0 64 20 102 73 141 38 28 48 30 100 27 37 -3
67 -12 85 -25z m1935 13 c64 -27 114 -111 102 -173 -7 -37 -23 -42 -60 -17
-17 11 -25 26 -25 45 0 57 -65 93 -119 65 -28 -15 -35 -27 -43 -79 -2 -10 -18
-27 -35 -38 l-33 -21 -9 25 c-19 48 -1 107 44 153 24 23 53 44 66 47 47 9 80
7 112 -7z m-1283 -96 c0 -22 -3 -40 -7 -41 -35 -5 -396 -6 -412 -2 -16 4 -21
13 -21 37 0 18 3 36 7 39 3 4 102 7 220 7 l213 0 0 -40z m908 -2 l3 -38 -220
0 -221 0 0 33 c0 19 3 37 7 41 4 4 102 6 218 4 l210 -3 3 -37z m-1358 -28 c0
-67 -16 -86 -49 -56 -10 9 -25 16 -34 16 -13 0 -17 9 -17 40 0 36 3 40 25 40
14 0 25 5 25 10 0 6 11 10 25 10 24 0 25 -3 25 -60z m1428 51 c9 -5 25 -12 35
-15 14 -5 18 -14 15 -43 -2 -26 -7 -37 -17 -35 -7 2 -22 -4 -32 -13 -9 -9 -26
-15 -36 -13 -15 3 -19 15 -21 66 -3 57 -1 62 18 62 11 0 28 -4 38 -9z m-974
-97 c3 -9 4 -20 0 -25 -3 -5 6 -13 19 -18 14 -6 27 -16 30 -23 4 -8 6 -7 6 5
1 9 8 17 16 17 12 0 15 -17 15 -95 0 -62 -4 -95 -11 -95 -6 0 -13 10 -17 22
l-5 22 -9 -23 c-17 -47 -33 -16 -39 75 -3 49 -6 81 -7 71 -2 -16 -18 -17 -219
-15 l-218 3 -3 33 c-6 64 -13 62 222 62 186 0 215 -2 220 -16z m894 8 c7 -2
12 -22 12 -48 l0 -44 -220 0 -220 0 0 43 c0 24 3 47 7 51 8 8 399 6 421 -2z
m-471 -69 c3 9 11 17 19 17 11 0 14 -19 14 -95 0 -78 -3 -95 -15 -95 -8 0 -15
7 -15 15 0 8 -4 15 -10 15 -5 0 -10 -7 -10 -15 0 -8 -7 -15 -15 -15 -12 0 -15
17 -15 94 0 67 4 96 13 99 6 2 16 -6 21 -17 8 -19 10 -19 13 -3z m-427 -83 l0
-40 -217 2 -218 3 -3 23 c-8 52 -9 52 223 52 l215 0 0 -40z m910 0 l0 -40
-220 0 -220 0 0 40 0 40 220 0 220 0 0 -40z m-910 -100 l0 -40 -217 2 -218 3
-3 23 c-8 52 -9 52 223 52 l215 0 0 -40z m910 0 l0 -40 -217 2 -218 3 -3 38
-3 37 220 0 221 0 0 -40z m-1359 -57 c0 -39 2 -44 9 -25 9 22 11 22 224 22
205 0 214 -1 219 -20 3 -11 3 -29 0 -40 -5 -19 -14 -20 -219 -20 -180 0 -216
2 -220 15 -5 13 -8 13 -21 -1 -14 -13 -18 -13 -39 1 -13 8 -30 15 -39 15 -11
0 -15 11 -15 40 0 36 3 40 25 40 14 0 25 5 25 10 0 6 11 10 25 10 23 0 25 -4
26 -47z m1424 37 c3 -5 15 -10 26 -10 16 0 19 -7 19 -40 0 -34 -3 -40 -20 -40
-11 0 -23 -6 -26 -14 -6 -16 -40 -10 -47 8 -3 7 -3 33 0 59 4 37 10 47 24 47
10 0 21 -4 24 -10z m-65 -80 l0 -40 -220 0 -220 0 0 40 0 40 220 0 220 0 0
-40z m-906 -84 c8 -31 -1 -54 -22 -60 -22 -6 -382 -6 -404 0 -13 4 -18 16 -18
45 l0 39 219 0 219 0 6 -24z m906 -15 l0 -39 -55 -4 c-30 -1 -129 -2 -220 0
l-165 3 0 40 0 39 220 0 220 0 0 -39z"/>
<path d="M3135 4003 c-11 -2 -85 -20 -165 -39 -277 -67 -280 -69 -280 -200 0
-77 2 -86 28 -114 23 -25 47 -35 165 -65 76 -19 146 -35 155 -34 30 1 -22 17
-159 50 -112 27 -132 35 -154 61 -22 26 -25 39 -25 104 0 114 9 120 246 178
105 25 201 46 213 46 l21 0 -2 -222 -3 -223 -55 2 -55 2 45 -15 c25 -7 60 -14
79 -14 37 0 348 72 419 97 62 22 82 59 82 151 0 68 -2 74 -32 107 -35 37 -17
31 -363 115 -78 19 -118 23 -160 13z m316 -65 c92 -22 177 -49 190 -59 22 -16
24 -27 27 -107 5 -129 5 -129 -229 -186 -103 -25 -199 -46 -213 -46 l-26 0 0
226 0 227 43 -7 c23 -3 117 -25 208 -48z"/>
<path d="M3375 3891 c-22 -10 -48 -32 -57 -49 -24 -41 -23 -116 2 -157 39 -63
132 -84 197 -44 93 58 90 193 -6 247 -47 27 -83 27 -136 3z m131 -30 c55 -34
70 -135 26 -174 -80 -72 -189 -41 -208 59 -19 101 91 170 182 115z"/>
<path d="M3345 3780 c-14 -22 22 -100 47 -100 4 0 8 20 8 44 0 47 11 56 58 48
18 -4 22 -11 22 -43 0 -27 4 -39 14 -39 23 0 43 37 38 70 l-4 30 -89 0 c-48 0
-90 -4 -94 -10z"/>
<path d="M2870 3892 c-70 -35 -100 -124 -65 -192 8 -16 31 -41 50 -56 31 -23
42 -26 90 -22 60 5 94 28 122 82 19 37 12 109 -14 145 -24 33 -79 61 -118 61
-16 0 -46 -8 -65 -18z m148 -45 c18 -18 26 -39 30 -75 4 -44 1 -53 -24 -81
-40 -43 -79 -53 -134 -32 -51 19 -70 47 -70 104 0 49 13 73 53 98 43 27 110
21 145 -14z"/>
<path d="M2847 3783 c-12 -11 -8 -43 9 -68 23 -35 32 -31 36 13 3 34 6 37 33
38 47 2 55 -5 55 -48 0 -49 17 -47 43 4 29 59 18 68 -82 68 -48 0 -91 -3 -94
-7z"/>
<path d="M2895 3255 c-16 -9 -41 -26 -53 -38 -46 -42 -52 -68 -52 -212 0 -152
6 -172 65 -224 l36 -31 174 0 175 0 0 26 c0 23 -4 26 -25 22 -22 -5 -24 -2
-19 18 4 17 1 26 -10 30 -15 6 -15 8 -2 23 9 10 13 26 9 39 -7 27 -23 29 -23
3 0 -21 -26 -36 -35 -21 -10 17 -25 11 -25 -10 0 -23 -29 -27 -48 -8 -9 9 -15
8 -25 -6 -14 -19 -47 -13 -47 10 0 10 -8 12 -30 8 -27 -6 -30 -4 -30 20 0 23
-3 26 -19 21 -25 -8 -46 26 -28 44 9 9 7 13 -11 17 -24 7 -29 33 -9 53 10 11
10 14 0 18 -17 6 -16 40 1 50 7 4 13 19 12 33 -1 19 5 26 22 28 17 3 21 8 17
22 -6 18 19 34 43 28 6 -2 17 6 26 17 13 18 17 18 37 6 17 -10 24 -10 27 -2 5
15 39 14 49 -3 4 -7 19 -13 33 -12 19 1 26 -5 28 -21 2 -14 11 -23 25 -25 17
-2 22 -9 20 -31 -1 -18 3 -27 13 -27 21 0 29 -27 14 -46 -10 -11 -10 -18 -2
-26 19 -19 14 -45 -10 -51 -18 -5 -19 -8 -8 -22 10 -12 10 -19 2 -27 -17 -17
-15 -28 4 -28 9 0 18 9 21 20 5 19 6 19 19 3 11 -15 16 -16 33 -5 19 11 21 10
21 -8 0 -15 7 -20 27 -20 21 0 24 -3 15 -12 -15 -15 -16 -48 -2 -48 19 0 10
-18 -11 -23 -14 -4 -20 -11 -16 -21 4 -11 -2 -16 -26 -18 -21 -2 -33 -9 -35
-20 -3 -16 7 -18 113 -18 l116 0 42 39 42 40 3 152 c2 83 1 162 -3 176 -7 30
-81 100 -111 106 -13 2 -139 5 -281 6 -219 1 -263 -1 -288 -14z m567 -34 c4
-1 19 -12 33 -26 43 -44 32 -115 -22 -143 -79 -43 -167 37 -131 119 14 31 63
59 93 54 11 -2 23 -4 27 -4z m8 -206 c0 15 32 -20 41 -44 15 -37 2 -74 -32
-93 -39 -23 -61 -23 -87 0 -21 19 -38 66 -33 91 7 35 74 68 99 48 6 -5 12 -6
12 -2z"/>
<path d="M3412 3201 c-12 -7 -12 -12 -1 -30 16 -25 27 -26 53 -6 12 9 16 18
10 24 -15 15 -48 21 -62 12z"/>
<path d="M3360 3154 c-6 -14 -6 -32 -2 -40 7 -13 12 -12 32 4 19 16 21 22 11
40 -15 29 -29 28 -41 -4z"/>
<path d="M3468 3146 c-21 -15 -23 -37 -6 -54 17 -17 38 4 38 39 0 32 -6 35
-32 15z"/>
<path d="M3393 3103 c-18 -7 -16 -30 3 -37 44 -17 71 3 42 32 -13 13 -24 14
-45 5z"/>
<path d="M3412 2988 c5 -15 48 -18 48 -3 0 6 -11 11 -26 13 -18 3 -25 0 -22
-10z"/>
<path d="M3380 2945 c0 -16 6 -25 15 -25 9 0 15 9 15 25 0 16 -6 25 -15 25 -9
0 -15 -9 -15 -25z"/>
<path d="M3466 2954 c-7 -18 0 -34 15 -34 5 0 9 11 9 25 0 28 -15 34 -24 9z"/>
<path d="M3426 2952 c-3 -6 -1 -14 5 -17 15 -10 25 3 12 16 -7 7 -13 7 -17 1z"/>
<path d="M3417 2914 c-14 -14 -6 -24 19 -24 16 0 24 5 22 13 -5 14 -31 21 -41
11z"/>
<path d="M2998 3174 c-22 -7 -23 -27 -4 -43 21 -18 97 -10 110 11 5 9 7 20 4
24 -9 8 -88 14 -110 8z"/>
<path d="M2926 3104 c-9 -24 -7 -87 4 -104 7 -12 13 -12 27 -4 22 13 30 89 12
110 -15 19 -35 18 -43 -2z"/>
<path d="M3122 3104 c-18 -20 -11 -94 10 -108 9 -5 20 -7 24 -4 13 14 17 98 4
113 -15 18 -21 18 -38 -1z"/>
<path d="M3681 3084 c0 -11 3 -14 6 -6 3 7 2 16 -1 19 -3 4 -6 -2 -5 -13z"/>
<path d="M3835 3090 c-4 -6 20 -10 64 -10 41 0 71 4 71 10 0 6 -28 10 -64 10
-36 0 -68 -4 -71 -10z"/>
<path d="M2154 3067 c-2 -7 -4 -54 -2 -103 l3 -89 29 -3 c15 -2 39 -1 53 2 23
6 24 8 21 104 l-3 97 -48 3 c-33 2 -49 -1 -53 -11z"/>
<path d="M3024 3065 c-4 -9 -2 -21 4 -27 15 -15 44 -1 40 19 -4 23 -36 29 -44
8z"/>
<path d="M4122 2978 l3 -103 45 0 45 0 3 103 3 102 -51 0 -51 0 3 -102z"/>
<path d="M2992 2978 c-29 -29 -7 -48 58 -48 45 0 69 22 50 45 -15 18 -91 20
-108 3z"/>
<path d="M3236 2894 c-23 -22 -20 -37 4 -24 11 6 20 17 20 25 0 19 -5 19 -24
-1z"/>
<path d="M3284 2882 c17 -20 17 -22 2 -38 -19 -19 -14 -29 9 -20 24 9 16 70
-10 75 -20 3 -20 3 -1 -17z"/>
<path d="M3220 2841 c0 -10 30 -24 37 -17 3 3 2 9 -2 15 -8 13 -35 15 -35 2z"/>
<path d="M2165 2770 c-3 -5 1 -10 9 -10 9 0 16 5 16 10 0 6 -4 10 -9 10 -6 0
-13 -4 -16 -10z"/>
<path d="M2130 2715 c0 -30 26 -85 40 -85 13 0 13 4 -7 61 -19 54 -33 63 -33
24z"/>
<path d="M4217 2733 c-2 -4 -7 -25 -11 -46 -4 -21 -10 -45 -13 -53 -3 -8 1
-14 9 -14 12 0 40 76 40 107 -1 11 -19 15 -25 6z"/>
<path d="M3444 2585 c-13 -32 7 -35 202 -35 l194 0 0 25 c0 25 -23 35 -35 15
-4 -6 -70 -10 -165 -10 -95 0 -161 4 -165 10 -9 15 -25 12 -31 -5z"/>
<path d="M2532 2578 c3 -23 3 -23 203 -23 200 0 200 0 203 23 3 16 -2 22 -17
22 -11 0 -23 -4 -26 -10 -4 -6 -68 -10 -160 -10 -92 0 -156 4 -160 10 -3 6
-15 10 -26 10 -15 0 -20 -6 -17 -22z"/>
<path d="M2530 2475 l0 -25 203 2 c201 3 202 3 205 26 3 18 -1 22 -21 22 -14
0 -27 -7 -31 -15 -4 -12 -31 -15 -149 -15 -116 0 -147 3 -157 15 -21 25 -50
19 -50 -10z"/>
<path d="M3440 2475 l0 -25 203 2 c194 3 202 4 202 23 0 26 -31 32 -55 10 -16
-14 -39 -16 -161 -13 -103 2 -144 6 -147 16 -2 6 -12 12 -23 12 -14 0 -19 -7
-19 -25z"/>
<path d="M2530 2365 l0 -25 199 0 c110 0 202 4 205 9 9 14 -4 41 -19 41 -7 0
-18 -7 -25 -15 -10 -12 -40 -15 -155 -15 -115 0 -145 3 -155 15 -21 25 -50 19
-50 -10z"/>
<path d="M3440 2365 l0 -25 203 2 c194 3 202 4 202 23 0 25 -35 33 -47 11 -13
-23 -303 -24 -312 -1 -3 8 -15 15 -26 15 -15 0 -20 -7 -20 -25z"/>
<path d="M2532 2258 c3 -23 3 -23 203 -23 193 0 200 1 200 20 0 13 -8 21 -22
23 -13 2 -23 -1 -23 -7 0 -7 -52 -11 -155 -11 -97 0 -155 4 -155 10 0 6 -12
10 -26 10 -21 0 -25 -4 -22 -22z"/>
<path d="M3442 2259 c3 -21 6 -22 198 -20 107 1 199 6 204 11 4 4 5 13 2 19
-9 14 -43 14 -51 1 -4 -6 -67 -10 -155 -10 -88 0 -151 4 -155 10 -3 6 -15 10
-26 10 -15 0 -20 -6 -17 -21z"/>
<path d="M2532 2158 c3 -23 4 -23 201 -26 175 -3 198 -1 203 13 10 25 -12 42
-36 27 -25 -15 -316 -17 -325 -2 -3 6 -15 10 -26 10 -15 0 -20 -6 -17 -22z"/>
<path d="M3441 2176 c-6 -7 -9 -21 -5 -30 6 -15 28 -16 208 -14 l201 3 0 24
c0 30 -17 37 -38 17 -12 -13 -46 -16 -160 -18 -126 -3 -147 -1 -164 15 -24 21
-27 21 -42 3z"/>
<path d="M2532 2058 c3 -23 3 -23 203 -23 200 0 200 0 203 23 3 18 -1 22 -22
22 -14 0 -26 -4 -26 -10 0 -6 -58 -10 -155 -10 -97 0 -155 4 -155 10 0 6 -12
10 -26 10 -21 0 -25 -4 -22 -22z"/>
<path d="M3440 2062 c0 -17 14 -19 168 -25 178 -6 237 0 237 23 0 20 -32 25
-49 7 -22 -21 -289 -23 -306 -2 -18 21 -50 19 -50 -3z"/>
<path d="M2530 1955 l0 -25 205 0 205 0 0 25 c0 20 -5 25 -24 25 -13 0 -26 -7
-30 -15 -4 -12 -31 -15 -149 -15 -116 0 -147 3 -157 15 -21 25 -50 19 -50 -10z"/>
<path d="M3440 1955 l0 -25 198 1 c108 1 200 3 204 5 3 2 4 13 1 24 -6 24 -28
26 -49 5 -12 -12 -44 -15 -153 -15 -111 0 -141 3 -151 15 -21 25 -50 19 -50
-10z"/>
<path d="M2460 4494 c-85 -50 -105 -61 -330 -184 -352 -193 -383 -217 -458
-370 l-37 -75 0 -700 0 -700 37 -77 c50 -100 120 -176 216 -231 181 -104 519
-287 531 -287 8 0 11 11 9 33 -3 28 -7 32 -35 35 -18 2 -33 7 -33 12 0 5 -10
10 -22 12 -22 3 -23 6 -23 128 0 121 1 125 22 128 46 7 33 31 -37 72 -38 22
-76 43 -84 46 -9 3 -54 -16 -104 -45 -49 -28 -94 -51 -100 -51 -16 0 -62 138
-62 188 0 54 29 125 67 164 23 24 24 29 12 62 -8 22 -20 36 -33 38 -21 3 -21
7 -21 353 l0 350 94 3 c52 1 98 -1 104 -7 5 -5 12 -24 16 -43 9 -41 23 -38 36
10 l11 37 102 3 102 3 0 -101 0 -100 32 0 c17 0 41 9 52 19 24 21 95 61 111
61 5 0 21 16 34 35 44 65 139 125 198 125 48 0 11 18 -81 40 -107 25 -149 53
-194 128 -25 44 -27 55 -27 157 0 105 1 112 31 160 34 56 92 101 142 111 18 3
34 10 37 14 3 4 -33 63 -79 131 -58 86 -94 130 -118 142 -19 10 -42 31 -51 47
-19 31 -22 101 -7 131 15 27 -5 25 -60 -7z"/>
<path d="M3855 4504 c5 -10 10 -37 12 -59 5 -47 -25 -99 -72 -125 -30 -17
-195 -239 -195 -263 0 -7 19 -18 43 -24 54 -15 109 -58 139 -108 21 -36 23
-53 23 -160 0 -108 -2 -124 -23 -160 -39 -67 -93 -102 -183 -121 -86 -19 -136
-43 -89 -44 42 0 126 -46 169 -92 23 -23 41 -46 41 -51 0 -4 24 -18 53 -31 28
-13 61 -33 71 -45 13 -14 31 -21 58 -21 l38 0 0 100 0 100 100 0 99 0 10 -37
c6 -21 11 -45 11 -53 0 -24 16 2 29 48 l12 42 99 0 100 0 0 -354 0 -355 -22
-3 c-15 -2 -24 -13 -30 -36 -7 -27 -5 -38 16 -65 39 -51 56 -101 56 -166 0
-63 -34 -169 -56 -178 -7 -2 -51 18 -99 46 -47 28 -89 51 -93 51 -5 0 -45 -21
-89 -46 -84 -47 -97 -70 -45 -76 19 -2 27 -9 26 -20 -1 -10 -2 -67 -3 -128 -1
-102 -2 -110 -20 -110 -11 0 -23 -4 -26 -10 -3 -5 -19 -10 -36 -10 -27 0 -29
-3 -29 -35 0 -19 5 -35 11 -35 6 0 117 59 247 132 131 72 259 143 286 157 108
57 216 202 245 331 7 28 11 281 11 675 0 695 0 689 -63 809 -61 117 -108 152
-472 353 -181 100 -339 185 -349 189 -16 6 -18 4 -11 -12z"/>
<path d="M3040 1913 l0 -83 -277 -2 -278 -3 45 -24 c25 -14 72 -40 105 -58 33
-18 66 -36 74 -40 8 -3 62 -34 120 -68 137 -79 194 -103 276 -114 79 -12 214
1 271 25 37 15 398 212 474 258 l35 21 -275 5 -275 5 -3 80 -3 80 -144 0 -145
0 0 -82z"/>
<path d="M5585 3361 c3 -10 -1 -24 -10 -31 -21 -17 -19 -37 5 -45 44 -14 68
46 32 78 -24 22 -35 21 -27 -2z"/>
<path d="M5310 3354 c-19 -22 -1 -68 28 -72 29 -4 39 23 17 48 -9 10 -14 24
-10 29 10 17 -21 13 -35 -5z"/>
<path d="M5435 3200 c-18 -20 -18 -21 6 -38 13 -9 24 -17 24 -17 0 0 11 8 24
17 24 17 24 18 6 38 -10 11 -23 20 -30 20 -7 0 -20 -9 -30 -20z"/>
<path d="M5312 3068 c-17 -17 -15 -44 4 -62 20 -21 38 -20 30 0 -4 10 1 22 10
29 21 15 12 45 -14 45 -10 0 -23 -5 -30 -12z"/>
<path d="M5563 3065 c-3 -9 2 -22 12 -29 11 -8 16 -20 12 -30 -8 -20 7 -21 27
0 21 20 21 60 0 68 -26 10 -44 7 -51 -9z"/>
<path d="M773 3362 c-3 -12 -11 -18 -19 -15 -19 7 -34 -5 -27 -22 7 -19 29
-19 37 0 3 8 15 15 26 15 15 0 20 5 18 17 -5 25 -29 28 -35 5z"/>
<path d="M1016 3365 c-3 -8 -15 -15 -26 -15 -11 0 -20 -6 -20 -14 0 -23 22
-31 35 -13 13 19 50 23 60 7 11 -18 35 -10 35 11 0 16 -5 20 -19 16 -12 -3
-22 1 -25 9 -7 19 -32 18 -40 -1z"/>
<path d="M827 3354 c-14 -15 -6 -34 14 -34 14 0 19 5 17 17 -3 18 -20 27 -31
17z"/>
<path d="M1036 3024 c-4 -10 -2 -22 3 -27 14 -14 43 0 39 20 -4 24 -34 28 -42
7z"/>
<path d="M785 3020 c-4 -7 -3 -16 3 -22 14 -14 45 -2 40 15 -6 16 -34 21 -43
7z"/>
<path d="M1732 1252 c-8 -15 -16 -33 -19 -40 -3 -7 9 -18 31 -27 43 -18 41
-18 60 1 23 22 20 60 -6 78 -32 23 -51 20 -66 -12z"/>
<path d="M4612 1248 c-19 -9 -22 -17 -17 -37 10 -42 27 -54 58 -40 32 14 42
41 27 69 -12 22 -33 24 -68 8z"/>
<path d="M4662 1134 l-22 -15 20 -40 c11 -21 23 -39 26 -39 19 0 66 38 71 58
11 47 -47 70 -95 36z"/>
<path d="M1979 1109 c-19 -27 -49 -107 -49 -131 0 -13 39 -48 53 -48 53 0 121
154 87 195 -22 26 -66 18 -91 -16z"/>
<path d="M2269 1023 c-16 -42 -8 -58 32 -61 66 -6 79 56 17 77 -40 14 -37 15
-49 -16z"/>
<path d="M2237 923 c-3 -5 -8 -23 -12 -42 -8 -39 3 -51 52 -51 36 0 58 27 48
59 -9 28 -76 54 -88 34z"/>
<path d="M2541 915 c-23 -49 -28 -134 -9 -153 7 -7 25 -12 40 -12 24 0 32 7
48 43 19 41 26 119 14 151 -4 10 -18 16 -39 16 -29 0 -35 -5 -54 -45z"/>
</g>
</svg>
